<svg fill="none" viewBox="0 0 24 24" xmlns="http://www.w3.org/2000/svg"><g><path d="M14.15,11.39l.12-.07,5.74-3.83-5.74-3.83c-.3-.2-.67-.22-.99-.07h0l-.12,.07-5.74,3.83,5.74,3.83c.3,.2,.67,.22,.99,.07Z"/><path fill="#444444" d="M15.11,15.87l6.05-4.08c.23-.16,.43-.36,.58-.6,.32-.51,.39-1.13,.2-1.69l-6.84,4.56-.16,.1c-.76,.43-1.68,.41-2.43-.01,.29,.64,.49,1.33,.56,2.06,.69,.18,1.43,.08,2.05-.33Z"/><path fill="#444444" d="M6.84,10.41l-1.36-.91c-.11,.34-.11,.68-.04,1.02,.4-.08,.8-.12,1.22-.12,.06,0,.12,0,.18,0Z"/><path fill="#444444" d="M12.32,12.58c.84,.56,1.93,.56,2.77,0l6.36-4.24c.11-.07,.2-.17,.28-.28,.31-.46,.18-1.08-.28-1.39L15.09,2.42c-.84-.56-1.93-.56-2.77,0L5.95,6.67c-.11,.07-.2,.17-.28,.28-.31,.46-.18,1.08,.28,1.39l6.36,4.24Zm.83-8.9l.12-.07h0c.32-.16,.7-.13,.99,.07l5.74,3.83-5.74,3.83-.12,.07c-.32,.16-.7,.13-.99-.07l-5.74-3.83,5.74-3.83Z"/><path fill="#444444" d="M21.93,12.75l-6.84,4.56-.16,.1c-.59,.33-1.27,.39-1.9,.22-.07,.57-.22,1.12-.43,1.64,.8,.39,1.75,.36,2.5-.14l6.05-4.08c.74-.5,1.06-1.44,.78-2.29Z"/></g><path fill="#444444" d="M12.13,16.85c0-3.04-2.46-5.5-5.5-5.5S1.13,13.81,1.13,16.85s2.46,5.5,5.5,5.5,5.5-2.46,5.5-5.5Zm-5,.5v2.5c0,.28-.22,.5-.5,.5s-.5-.22-.5-.5v-2.5H3.63c-.28,0-.5-.22-.5-.5s.22-.5,.5-.5h2.5v-2.5c0-.28,.22-.5,.5-.5s.5,.22,.5,.5v2.5h2.5c.28,0,.5,.22,.5,.5s-.22,.5-.5,.5h-2.5Z"/></svg>