<svg fill="none" viewBox="0 0 24 24" xmlns="http://www.w3.org/2000/svg"><path fill="#444444" d="M7.34,6.82v10.28h-2.56v-5.51c0-.8-.02-1.27-.06-1.43s-.14-.28-.31-.37c-.17-.08-.55-.12-1.15-.12h-.25v-1.2c1.24-.27,2.18-.82,2.82-1.65h1.51Z"/><path fill="#444444" d="M11.47,15v2.09h-1.94v-2.09h1.94Z"/><path fill="#444444" d="M15.3,15v2.09h-1.94v-2.09h1.94Z"/><path fill="#444444" d="M20.82,6.82v10.28h-2.56v-5.51c0-.8-.02-1.27-.06-1.43s-.14-.28-.31-.37c-.17-.08-.55-.12-1.15-.12h-.25v-1.2c1.24-.27,2.18-.82,2.82-1.65h1.51Z"/></svg>