<?xml version="1.0" encoding="UTF-8"?><svg id="uuid-e937ee8d-8e95-4e71-b120-13e8eb905905" xmlns="http://www.w3.org/2000/svg" width="24" height="24" viewBox="0 0 24 24"><path d="m21.04,6.96c1.26,1.26,1.26,3.29,0,4.55h0l-7.12,7.11c-.26.26-.59.46-.94.56l-4.29,1.29c-.53.16-1.09-.14-1.25-.67-.06-.19-.06-.4,0-.59l1.36-4.23c.11-.34.3-.65.55-.9l7.13-7.12c1.26-1.26,3.3-1.26,4.55,0h.01Zm-3.49,1.06l-7.13,7.12c-.08.08-.15.19-.18.3l-1.07,3.32,3.38-1.02c.12-.04.23-.1.31-.19l7.12-7.11c.67-.67.67-1.76,0-2.43s-1.76-.67-2.43,0h0Z" style="fill:#444;"/><path d="m4.36,21.34c-1.1,0-2-.9-2-2V4.36c0-1.1.9-2,2-2s2,.9,2,2v14.98c0,1.1-.9,2-2,2Z" style="fill:#444;"/></svg>