<svg xmlns="http://www.w3.org/2000/svg" viewBox="0 0 24 24"><path fill="#444444" d="M15.54,10.27c-.27,.31-.75,.34-1.06,.07l-1.76-1.66v5.86c0,.41-.34,.75-.75,.75s-.75-.34-.75-.75v-5.86l-1.76,1.66c-.32,.26-.79,.22-1.06-.1-.26-.31-.23-.76,.07-1.03l3-2.75c.28-.25,.71-.25,.99,0l3,2.75c.31,.27,.34,.75,.07,1.06h.01Zm2.71-6.74h-1.5v1.5h1.5c.69,0,1.25,.56,1.25,1.25v11.47c0,.69-.56,1.25-1.25,1.25H5.75c-.69,0-1.25-.56-1.25-1.25V6.28c0-.69,.56-1.25,1.25-1.25h1.47v-1.5h-1.47c-1.52,0-2.75,1.23-2.75,2.75v11.47c0,1.52,1.23,2.75,2.75,2.75h12.5c1.52,0,2.75-1.23,2.75-2.75V6.28c0-1.52-1.23-2.75-2.75-2.75Z"/></svg>