<svg fill="none" viewBox="0 0 24 24" xmlns="http://www.w3.org/2000/svg"><path fill="#444444" d="M12.05,16.81c0-3.02-2.44-5.46-5.46-5.46S1.12,13.79,1.12,16.81s2.44,5.46,5.46,5.46,5.46-2.44,5.46-5.46Zm-4.97,.5v2.49c0,.28-.22,.5-.5,.5s-.5-.22-.5-.5v-2.49H3.6c-.28,0-.5-.22-.5-.5,0-.28,.22-.5,.5-.5h2.49v-2.49c0-.28,.22-.5,.5-.5s.5,.22,.5,.5v2.49s2.49,0,2.49,0c.28,0,.5,.22,.5,.5s-.22,.5-.5,.5c0,0-2.49,0-2.49,0Z"/><path fill="#444444" d="M18.75,5.5h-2.75v13h2.75c.97,0,1.75-.78,1.75-1.75V7.25c0-.97-.78-1.75-1.75-1.75Z"/><g><path fill="#444444" d="M18.75,5.5h-2.75v13h2.75c.97,0,1.75-.78,1.75-1.75V7.25c0-.97-.78-1.75-1.75-1.75Z"/><path fill="#444444" d="M18.75,4H5.25c-1.79,0-3.25,1.46-3.25,3.25v4.96c.44-.44,.95-.82,1.5-1.12v-3.84c0-.97,.78-1.75,1.75-1.75h2.75v4.97c.53,.12,1.03,.32,1.5,.56V5.5h5v13h-1.64c-.14,.53-.35,1.03-.62,1.5h6.5c1.79,0,3.25-1.46,3.25-3.25V7.25c0-1.79-1.46-3.25-3.25-3.25Zm1.75,12.75c0,.97-.78,1.75-1.75,1.75h-2.75V5.5h2.75c.97,0,1.75,.78,1.75,1.75v9.5Z"/></g></svg>