<svg fill="none" viewBox="0 0 24 24" xmlns="http://www.w3.org/2000/svg"><path fill="#444444" d="M20.11,6.19c1.26,1.26,1.26,3.29,0,4.55,0,0,0,0,0,0l-7.12,7.11c-.26,.26-.59,.46-.94,.56l-4.29,1.29c-.53,.16-1.09-.14-1.25-.67-.06-.19-.06-.4,0-.59l1.36-4.23c.11-.34,.3-.65,.55-.9l7.13-7.12c1.26-1.26,3.3-1.26,4.55,0,0,0,0,0,0,0Zm-3.49,1.06l-7.13,7.12c-.08,.08-.15,.19-.18,.3l-1.07,3.32,3.38-1.02c.12-.04,.23-.1,.31-.19l7.12-7.11c.67-.67,.67-1.76,0-2.43-.67-.67-1.76-.67-2.43,0h0Z"/><path fill="#444444" d="M4.77,18.09c-.41,0-.75-.34-.75-.75V3.91c0-.41,.34-.75,.75-.75s.75,.34,.75,.75v13.44c0,.41-.34,.75-.75,.75Z"/><path fill="#444444" d="M10.34,20.25c0-.41,.34-.75,.75-.75h9.44c.41,0,.75,.34,.75,.75s-.34,.75-.75,.75H11.09c-.41,0-.75-.34-.75-.75Z"/></svg>