<svg fill="none" viewBox="0 0 24 24" xmlns="http://www.w3.org/2000/svg"><path fill="#444444" d="M4,4.49v15c0,1.38,1.12,2.5,2.5,2.5h11c1.38,0,2.5-1.12,2.5-2.5V4.49c0-1.38-1.12-2.5-2.5-2.5H6.5c-1.38,0-2.5,1.12-2.5,2.5Zm13.5-1c.55,0,1,.45,1,1v15c0,.55-.45,1-1,1H6.5c-.55,0-1-.45-1-1V4.49c0-.55,.45-1,1-1h11Z"/><rect fill="#444444" x="9.97" y="10.14" width="4.05" height="3.68" rx=".9" ry=".9"/><path fill="#444444" d="M15.12,11.97c0-.41,.34-.75,.75-.75h1.5c.41,0,.75,.34,.75,.75s-.34,.75-.75,.75h-1.5c-.41,0-.75-.34-.75-.75Z"/><path fill="#444444" d="M5.82,11.97c0-.41,.34-.75,.75-.75h1.5c.41,0,.75,.34,.75,.75s-.34,.75-.75,.75h-1.5c-.41,0-.75-.34-.75-.75Z"/><path fill="#444444" d="M11.99,7.11c-.41,0-.75-.34-.75-.75v-1.5c0-.41,.34-.75,.75-.75s.75,.34,.75,.75v1.5c0,.41-.34,.75-.75,.75Z"/><path fill="#444444" d="M11.99,19.91c-.41,0-.75-.34-.75-.75v-1.5c0-.41,.34-.75,.75-.75s.75,.34,.75,.75v1.5c0,.41-.34,.75-.75,.75Z"/></svg>