<svg fill="none" viewBox="0 0 24 24" xmlns="http://www.w3.org/2000/svg"><path fill="#444444" d="M12.05,16.81c0-3.02-2.44-5.46-5.46-5.46S1.12,13.79,1.12,16.81s2.44,5.46,5.46,5.46,5.46-2.44,5.46-5.46Zm-5.46,.71l-1.76,1.76c-.2,.2-.51,.2-.71,0s-.2-.51,0-.71l1.76-1.76-1.76-1.76c-.2-.2-.2-.51,0-.71,.2-.2,.51-.2,.71,0l1.76,1.76,1.76-1.76c.2-.2,.51-.2,.71,0s.2,.51,0,.71l-1.76,1.76,1.76,1.76c.2,.2,.2,.51,0,.71s-.51,.2-.71,0c0,0-1.76-1.76-1.76-1.76Z"/><g><path d="M18.75,5.5h-2.75v13h2.75c.97,0,1.75-.78,1.75-1.75V7.25c0-.97-.78-1.75-1.75-1.75Z" /><path fill="#444444" d="M18.75,4H5.25c-1.79,0-3.25,1.46-3.25,3.25v4.96c.44-.44,.95-.82,1.5-1.12v-3.84c0-.97,.78-1.75,1.75-1.75h2.75v4.97c2.91,.65,5.09,3.24,5.09,6.34,0,1.16-.31,2.25-.84,3.19h6.5c1.79,0,3.25-1.46,3.25-3.25V7.25c0-1.79-1.46-3.25-3.25-3.25Zm1.75,12.75c0,.97-.78,1.75-1.75,1.75h-2.75V5.5h2.75c.97,0,1.75,.78,1.75,1.75v9.5Z"/></g></svg>