<svg version="1.1" id="Layer_1" xmlns="http://www.w3.org/2000/svg" xmlns:xlink="http://www.w3.org/1999/xlink" x="0px" y="0px" viewBox="0 0 24 24" style="enable-background:new 0 0 24 24;" xml:space="preserve">
<path d="M2,11.9c0-0.8,0.7-1.5,1.5-1.5h0c0.8,0,1.5,0.7,1.5,1.5s-0.7,1.5-1.5,1.5h0C2.7,13.4,2,12.7,2,11.9z"/>
<path d="M7.7,11.9c0-0.8,0.7-1.5,1.5-1.5h0c0.8,0,1.5,0.7,1.5,1.5s-0.7,1.5-1.5,1.5h0C8.3,13.4,7.7,12.7,7.7,11.9z"/>
<path d="M13.4,11.9c0-0.8,0.7-1.5,1.5-1.5h0c0.8,0,1.5,0.7,1.5,1.5s-0.7,1.5-1.5,1.5h0C14,13.4,13.4,12.7,13.4,11.9z"/>
<path d="M19,11.9c0-0.8,0.7-1.5,1.5-1.5h0c0.8,0,1.5,0.7,1.5,1.5s-0.7,1.5-1.5,1.5h0C19.7,13.4,19,12.7,19,11.9z" fill="#444444" />
</svg>
