<svg fill="none" viewBox="0 0 24 24" xmlns="http://www.w3.org/2000/svg"><path fill="#444444" d="M18.65,3.63c1.26,1.26,1.26,3.29,0,4.55,0,0,0,0,0,0l-7.12,7.11c-.26,.26-.59,.46-.94,.56l-4.29,1.29c-.53,.16-1.09-.14-1.25-.67-.06-.19-.06-.4,0-.59l1.36-4.23c.11-.34,.3-.65,.55-.9L14.09,3.62c1.26-1.26,3.3-1.26,4.55,0,0,0,0,0,0,0Zm-3.49,1.06l-7.13,7.12c-.08,.08-.15,.19-.18,.3l-1.07,3.32,3.38-1.02c.12-.04,.23-.1,.31-.19l7.12-7.11c.67-.67,.67-1.76,0-2.43-.67-.67-1.76-.67-2.43,0h0Z"/><path fill="#444444" d="M21.27,20.23H2.77c-.41,0-.75,.34-.75,.75s.34,.75,.75,.75H21.27c.41,0,.75-.34,.75-.75s-.34-.75-.75-.75Z"/></svg>