<svg xmlns="http://www.w3.org/2000/svg" viewBox="0 0 24 24"><path d="M20.26,12.96l-4.46,.5-2.59-1.49,2.59-1.49,4.46,.5s.05,0,.07,0c.31,0,.58-.24,.62-.56,.04-.34-.21-.65-.55-.69l-2.77-.31,2.49-1.44c.3-.17,.4-.56,.23-.85-.17-.3-.55-.4-.85-.23l-2.52,1.45,1.12-2.56c.14-.32,0-.68-.32-.82-.32-.14-.69,0-.82,.32l-1.81,4.12-2.56,1.48v-2.99l2.66-3.61c.21-.28,.15-.67-.13-.87-.28-.21-.67-.15-.87,.13l-1.66,2.25V2.9c0-.35-.28-.62-.62-.62s-.62,.28-.62,.62v2.9l-1.65-2.25c-.21-.28-.6-.34-.87-.13-.28,.2-.34,.6-.13,.87l2.66,3.62v2.96l-2.59-1.49-1.8-4.11c-.14-.32-.51-.46-.82-.32-.32,.14-.46,.51-.32,.82l1.12,2.56-2.49-1.44c-.3-.17-.68-.07-.85,.23-.17,.3-.07,.68,.23,.85l2.52,1.45-2.78,.31c-.34,.04-.59,.35-.55,.69,.04,.32,.31,.56,.62,.56,.02,0,.05,0,.07,0l4.47-.49,2.56,1.48-2.56,1.48-4.47-.49c-.34-.04-.65,.21-.69,.55-.04,.34,.21,.65,.55,.69l2.78,.31-2.52,1.45c-.3,.17-.4,.55-.23,.85,.12,.2,.33,.31,.54,.31,.11,0,.21-.03,.31-.08l2.49-1.44-1.12,2.56c-.14,.32,0,.69,.32,.82,.08,.04,.17,.05,.25,.05,.24,0,.47-.14,.57-.37l1.8-4.11,2.59-1.49v2.96l-2.66,3.62c-.2,.28-.14,.67,.13,.87,.28,.21,.67,.14,.87-.13l1.65-2.25v2.9c0,.34,.28,.62,.62,.62s.62-.28,.62-.62v-2.88l1.66,2.25c.12,.17,.31,.25,.5,.25,.13,0,.26-.04,.37-.12,.28-.2,.34-.6,.13-.87l-2.66-3.62v-2.99l2.56,1.48,1.81,4.12c.1,.23,.33,.37,.57,.37,.08,0,.17-.02,.25-.05,.32-.14,.46-.51,.32-.82l-1.12-2.56,2.52,1.45c.1,.06,.21,.08,.31,.08,.22,0,.43-.11,.54-.31,.17-.3,.07-.68-.23-.85l-2.49-1.44,2.77-.31c.34-.04,.59-.35,.55-.69-.04-.34-.35-.59-.69-.55Z" fill="#444444"/></svg>