<svg fill="none" viewBox="0 0 24 24" xmlns="http://www.w3.org/2000/svg"><path fill="#444444" d="M17.75,16c.41,0,.75,.34,.75,.75s-.34,.75-.75,.75H8.75c-.41,0-.75-.34-.75-.75s.34-.75,.75-.75h9ZM2.72,9.22c.26-.26,.68-.29,.98-.07l.08,.07,2,2c.26,.26,.29,.68,.07,.98l-.07,.08-2,2c-.29,.29-.77,.29-1.06,0-.26-.26-.29-.67-.07-.97l.07-.08,1.47-1.47-1.47-1.47c-.29-.29-.29-.77,0-1.06Zm18.03,1.78c.41,0,.75,.34,.75,.75s-.34,.75-.75,.75H10.75c-.41,0-.75-.34-.75-.75s.34-.75,.75-.75h10Zm-3-5c.41,0,.75,.34,.75,.75s-.34,.75-.75,.75H8.75c-.41,0-.75-.34-.75-.75s.34-.75,.75-.75h9Z"/></svg>