<svg fill="none" viewBox="0 0 24 24" xmlns="http://www.w3.org/2000/svg"><path fill="#444444" d="M2.75,5c-.41,0-.75,.34-.75,.75s.34,.75,.75,.75"/><path fill="#444444" d="M21.25,6.5c.41,0,.75-.34,.75-.75s-.34-.75-.75-.75"/><path fill="#444444" d="M2.75,5H21.25c.41,0,.75,.34,.75,.75,0,.37-.28,.69-.65,.74h-.1s-18.5,0-18.5,0c-.41,0-.75-.34-.75-.75,0-.37,.28-.69,.65-.74,0,0,.1,0,.1,0Zm-.75,6.41c0-.69,.56-1.25,1.25-1.25H20.75c.69,0,1.25,.56,1.25,1.25s-.56,1.25-1.25,1.25H3.25c-.69,0-1.25-.56-1.25-1.25Zm19.97,6.32c0-.97-.79-1.75-1.75-1.75H3.72c-.97,0-1.75,.79-1.75,1.75s.79,1.75,1.75,1.75H20.21c.97,0,1.75-.79,1.75-1.75Z"/></svg>