<svg fill="none" viewBox="0 0 24 24" xmlns="http://www.w3.org/2000/svg"><path fill="#444444" d="M20.9,2.98c1.26,1.26,1.26,3.29,0,4.55,0,0,0,0,0,0l-7.12,7.11c-.26,.26-.59,.46-.94,.56l-4.29,1.29c-.53,.16-1.09-.14-1.25-.67-.06-.19-.06-.4,0-.59l1.36-4.23c.11-.34,.3-.65,.55-.9l7.13-7.12c1.26-1.26,3.3-1.26,4.55,0,0,0,0,0,0,0Zm-3.49,1.06l-7.13,7.12c-.08,.08-.15,.19-.18,.3l-1.07,3.32,3.38-1.02c.12-.04,.23-.1,.31-.19l7.12-7.11c.67-.67,.67-1.76,0-2.43-.67-.67-1.76-.67-2.43,0h0Z"/><path fill="#444444" d="M18,18.1c-.55-.29-1.26-.44-2.01-.54-1.45-.18-3.35-.17-5.18-.15h-.24c-1.96,.02-3.83,.02-5.21-.18-.7-.1-1.19-.25-1.49-.42-.27-.16-.29-.27-.29-.36h0s.02-.04,.08-.09c.11-.1,.31-.21,.64-.33,.53-.19,.98-.32,1.65-.41l.46-1.51c-.9,.1-1.89,.25-2.61,.51-.4,.14-.81,.34-1.12,.61-.33,.28-.59,.69-.59,1.21,0,.78,.46,1.33,1.04,1.66,.55,.32,1.27,.5,2.02,.61,1.52,.22,3.52,.21,5.44,.2h.18c1.89-.02,3.7-.03,5.05,.14,.7,.09,1.2,.22,1.5,.38,.19,.1,.25,.18,.26,.22,0,0-.02,.02-.03,.02-.1,.08-.29,.18-.6,.28-.61,.2-1.49,.32-2.46,.4-1.59,.13-3.29,.11-4.2,.1h-.46c-.41,0-.75,.33-.75,.75s.34,.75,.75,.75h.42c.89,.01,2.68,.04,4.36-.1,1-.08,2.01-.22,2.8-.47,.39-.12,.78-.29,1.08-.53,.32-.25,.6-.64,.6-1.15,0-.78-.5-1.3-1.07-1.59Z"/></svg>