<svg fill="none" viewBox="0 0 24 24" xmlns="http://www.w3.org/2000/svg"><path fill="#444444" d="M12.75,2.69v3.49c0,.41-.34,.75-.75,.75-.37,0-.69-.28-.74-.65v-.1s0-3.49,0-3.49c0-.41,.34-.75,.75-.75,.37,0,.69,.28,.74,.65v.1s0,3.49,0,3.49V2.69Z"/><path fill="#444444" d="M12.75,12.73v8.5c0,.41-.34,.75-.75,.75-.37,0-.69-.28-.74-.65v-.1s0-8.5,0-8.5c0-.41,.34-.75,.75-.75,.37,0,.69,.28,.74,.65v.1s0,8.5,0,8.5V12.73Z"/><path fill="#444444" d="M20.75,14.72h-2.79c-.22-3.91-2.25-6.01-5.96-6.01s-5.73,2.11-5.96,6.01H3.15c-.37,.06-.65,.38-.65,.75,0,.41,.34,.75,.75,.75h3.6c.37-.06,.64-.37,.65-.74,0-.01,0-.02,0-.03h0s0-.27,0-.27c.07-3.42,1.52-4.98,4.5-4.98s4.5,1.64,4.5,5.25h0s0,.1,0,.1c0,.04,.03,.08,.04,.12,.01,.04,.02,.08,.04,.12,.01,.02,.03,.04,.04,.07,.13,.21,.36,.36,.63,.36h3.6c.37-.06,.65-.38,.65-.75,0-.41-.34-.75-.75-.75Z"/></svg>