<svg fill="none" viewBox="0 0 24 24" xmlns="http://www.w3.org/2000/svg"><path fill="#444444" d="M18.03,6.62h-1.74s0,0,0,0c-.47,0-.9,.18-1.23,.51-.33,.33-.52,.77-.52,1.24v6.8c0,1.44-1.22,2.6-2.72,2.6s-2.72-1.17-2.72-2.6v-6.8c0-.47-.18-.91-.52-1.24-.33-.33-.77-.51-1.23-.51h-1.75c-.96,.01-1.74,.8-1.74,1.76v6.93c0,4.26,3.57,7.72,7.95,7.72s7.95-3.46,7.95-7.72v-6.93c0-.96-.78-1.74-1.74-1.75Zm-12.67,1.75c0-.14,.11-.25,.25-.25h1.74s0,0,0,0c.09,0,.15,.05,.18,.07s.07,.09,.07,.18v1.57h-2.24v-1.56Zm12.91,6.93c0,3.43-2.89,6.22-6.45,6.22s-6.45-2.79-6.45-6.22v-3.86h2.24v3.72c0,2.26,1.89,4.1,4.22,4.1s4.22-1.84,4.22-4.1v-3.72h2.24v3.86Zm0-5.36h-2.24v-1.57c0-.09,.05-.15,.07-.18,.03-.03,.06-.1,.18-.07h1.74c.14,.01,.25,.12,.25,.26v1.56Z" style="fill:#444444;"/><polygon points="7.44 .48 5.47 3.55 6.45 3.55 5.9 6 8.13 2.8 7.04 2.8 7.44 .48" style="fill:#444444;"/><polygon points="17.73 .48 15.75 3.55 16.73 3.55 16.19 6 18.41 2.8 17.32 2.8 17.73 .48" style="fill:#444444;"/></svg>