<svg fill="none" viewBox="0 0 24 24" xmlns="http://www.w3.org/2000/svg"><path fill="#444444" d="M8.24,8H3.6c-.91,.08-1.61,.84-1.61,1.75v4.5c0,.97,.78,1.75,1.75,1.75h4.49c.97,0,1.75-.78,1.75-1.75v-4.5c0-.97-.78-1.75-1.75-1.75Zm.25,6.25c0,.14-.11,.25-.25,.25H3.74c-.14,0-.25-.11-.25-.25v-4.5c0-.12,.08-.22,.19-.24h.06s4.49,0,4.49,0c.14,0,.25,.11,.25,.25v4.5Z"/><path fill="#444444" d="M20.17,8h-4.49c-.97,0-1.75,.78-1.75,1.75v4.5c0,.97,.78,1.75,1.75,1.75h4.49c.97,0,1.75-.78,1.75-1.75v-4.5c0-.97-.78-1.75-1.75-1.75Zm.25,6.25c0,.14-.11,.25-.25,.25h-4.49c-.14,0-.25-.11-.25-.25v-4.5c0-.14,.11-.25,.25-.25h4.49c.14,0,.25,.11,.25,.25v4.5Z"/><path fill="#444444" d="M12.71,3.65c-.05-.37-.37-.65-.74-.65-.41,0-.75,.34-.75,.75V20.35c.05,.38,.38,.66,.76,.66,.41,0,.75-.34,.74-.76V3.65Z"/></svg>