<svg fill="none" viewBox="0 0 24 24" xmlns="http://www.w3.org/2000/svg"><path fill="#444444" d="M18.75,4.5H5.25c-.41,0-.75,.34-.75,.75v13.5c0,.41,.34,.75,.75,.75h13.5c.41,0,.75-.34,.75-.75V5.25c0-.41-.34-.75-.75-.75Zm-.75,12.75c0,.41-.34,.75-.75,.75h-2.5c-.41,0-.75-.34-.75-.75s.34-.75,.75-.75h.69l-1.72-1.72-6.22-6.22v.69c0,.41-.34,.75-.75,.75s-.75-.34-.75-.75v-2.5c0-.41,.34-.75,.75-.75h2.5c.41,0,.75,.34,.75,.75s-.34,.75-.75,.75h-.69l6.22,6.22s0,0,0,0l1.72,1.72v-.69c0-.41,.34-.75,.75-.75s.75,.34,.75,.75v2.5Z" style="fill:none;"/><g><path d="M18.75,4.5H5.25c-.41,0-.75,.34-.75,.75v13.5c0,.41,.34,.75,.75,.75h13.5c.41,0,.75-.34,.75-.75V5.25c0-.41-.34-.75-.75-.75Zm-.75,12.75c0,.41-.34,.75-.75,.75h-2.5c-.41,0-.75-.34-.75-.75s.34-.75,.75-.75h.69l-1.72-1.72-6.22-6.22v.69c0,.41-.34,.75-.75,.75s-.75-.34-.75-.75v-2.5c0-.41,.34-.75,.75-.75h2.5c.41,0,.75,.34,.75,.75s-.34,.75-.75,.75h-.69l6.22,6.22s0,0,0,0l1.72,1.72v-.69c0-.41,.34-.75,.75-.75s.75,.34,.75,.75v2.5Z"/><path fill="#444444" d="M18,14.75v2.5c0,.41-.34,.75-.75,.75h-2.5c-.41,0-.75-.34-.75-.75s.34-.75,.75-.75h.69l-1.72-1.72-6.22-6.22v.69c0,.41-.34,.75-.75,.75s-.75-.34-.75-.75v-2.5c0-.41,.34-.75,.75-.75h2.5c.41,0,.75,.34,.75,.75s-.34,.75-.75,.75h-.69l6.22,6.22s0,0,0,0l1.72,1.72v-.69c0-.41,.34-.75,.75-.75s.75,.34,.75,.75Zm3-9.5v13.5c0,1.24-1.01,2.25-2.25,2.25H5.25c-1.24,0-2.25-1.01-2.25-2.25V5.25c0-1.24,1.01-2.25,2.25-2.25h13.5c1.24,0,2.25,1.01,2.25,2.25Zm-1.5,0c0-.41-.34-.75-.75-.75H5.25c-.41,0-.75,.34-.75,.75v13.5c0,.41,.34,.75,.75,.75h13.5c.41,0,.75-.34,.75-.75V5.25Z"/></g></svg>