<svg fill="none" viewBox="0 0 24 24" xmlns="http://www.w3.org/2000/svg"><path fill="#444444" d="M182.12-149.88C91.24-149.88,17.3-75.94,17.3,14.94c0,70.4,44.37,130.62,106.62,154.2h116.42c62.24-23.57,106.62-83.8,106.62-154.2" style="fill:none;"/><path fill="#444444" d="M21.77,18.48h-3.44c-.21,0-.33-.25-.19-.41l.32-.37c1.15-1.36,1.95-3.01,2.15-4.78,.3-2.69-.61-5.28-2.49-7.16-1.64-1.64-3.81-2.54-6.12-2.55h0s0,0,0,0,0,0,0,0h0c-2.31,0-4.48,.91-6.12,2.55-1.88,1.88-2.79,4.47-2.49,7.16,.2,1.77,1,3.42,2.15,4.78l.32,.37c.14,.16,.02,.41-.19,.41H2.2c-.17,0-.3,.13-.3,.3v1.11c0,.17,.13,.3,.3,.3h6.33c.14,0,.25-.11,.25-.25v-1.7c0-.09-.05-.17-.13-.21-3.3-1.82-4.83-6.19-2.54-9.87,.97-1.56,2.55-2.69,4.34-3.08,.52-.11,1.03-.15,1.53-.15,.5,0,1.01,.04,1.53,.15,1.79,.39,3.37,1.53,4.34,3.08,2.29,3.68,.76,8.05-2.54,9.87-.08,.04-.13,.12-.13,.21v1.7c0,.14,.11,.25,.25,.25h6.33c.17,0,.3-.13,.3-.3v-1.11c0-.17-.13-.3-.3-.3Z"/></svg>