<svg fill="none" viewBox="0 0 24 24" xmlns="http://www.w3.org/2000/svg"><path fill="#444444" d="M20.75,16c.41,0,.75,.34,.75,.75s-.34,.75-.75,.75H11.75c-.41,0-.75-.34-.75-.75s.34-.75,.75-.75h9ZM5.78,10.28l-1.47,1.47,1.47,1.47,.07,.08c.22,.3,.19,.71-.07,.97-.29,.29-.77,.3-1.06,0l-2-2-.07-.08c-.22-.3-.19-.71,.07-.98l2-2,.08-.07c.3-.22,.71-.19,.98,.07,.29,.29,.29,.77,0,1.06Zm12.97,.72c.41,0,.75,.34,.75,.75s-.34,.75-.75,.75H8.75c-.41,0-.75-.34-.75-.75s.34-.75,.75-.75h10Zm2-5c.41,0,.75,.34,.75,.75s-.34,.75-.75,.75H11.75c-.41,0-.75-.34-.75-.75s.34-.75,.75-.75h9Z"/></svg>