<?xml version="1.0" encoding="UTF-8"?><svg xmlns="http://www.w3.org/2000/svg" viewBox="0 0 24 24"><path fill="#444444" d="M8.84,3.71c1.2-.94,2.8-1.32,4.38-.9,1.48,.4,2.63,1.39,3.24,2.7h0c.17,.38,0,.82-.37,1s-.82,0-1-.37c-.42-.9-1.21-1.6-2.26-1.88-1.4-.38-2.89,.15-3.74,1.33l1.23,.33c.4,.11,.64,.52,.53,.92s-.52,.64-.92,.53l-2.66-.71c-.4-.11-.64-.52-.53-.92l.84-3.14c.11-.4,.52-.64,.92-.53s.64,.52,.53,.92l-.19,.72Z"/><path d="M18.44,10.01c.39-1.06-.64-2.09-1.7-1.69l-10.57,3.92c-1.13,.42-1.15,2.02-.02,2.46l3.65,1.43c.38,.15,.69,.45,.85,.83l1.48,3.55c.46,1.11,2.04,1.07,2.46-.05l3.86-10.45h0Zm-11.3,3.47l9.76-3.62-3.56,9.65-1.3-3.12c-.32-.76-.92-1.35-1.68-1.65l-3.21-1.26Z" fill="#444444" /></svg>