<?xml version="1.0" encoding="UTF-8"?>
<svg xmlns="http://www.w3.org/2000/svg" viewBox="0 0 24 24"><path fill="#444444" d="M8.84,3.71c1.2-.94,2.8-1.32,4.38-.9,1.48,.4,2.63,1.39,3.24,2.7h0c.17,.38,0,.82-.37,1s-.82,0-1-.37c-.42-.9-1.21-1.6-2.26-1.88-1.4-.38-2.89,.15-3.74,1.33l1.23,.33c.4,.11,.64,.52,.53,.92s-.52,.64-.92,.53l-2.66-.71c-.4-.11-.64-.52-.53-.92l.84-3.14c.11-.4,.52-.64,.92-.53s.64,.52,.53,.92l-.19,.72Z"/><path d="M13.16,9.75c-.47-1.02-1.93-1.02-2.4,0l-4.7,10.25c-.5,1.1,.62,2.24,1.72,1.76l3.6-1.57c.38-.16,.81-.17,1.19-.01l3.55,1.46c1.11,.46,2.2-.68,1.7-1.77l-4.66-10.12h0Zm-5.54,10.44l4.34-9.46,4.31,9.34-3.13-1.29c-.76-.31-1.61-.3-2.36,.02l-3.16,1.38Z" fill="#444444"/></svg>