<?xml version="1.0" encoding="UTF-8"?>
<svg xmlns="http://www.w3.org/2000/svg" viewBox="0 0 24 24"><path fill="#444444" d="M8.84,3.71c1.2-.94,2.8-1.32,4.38-.9,1.48,.4,2.63,1.39,3.24,2.7h0c.17,.38,0,.82-.37,1s-.82,0-1-.37c-.42-.9-1.21-1.6-2.26-1.88-1.4-.38-2.89,.15-3.74,1.33l1.23,.33c.4,.11,.64,.52,.53,.92s-.52,.64-.92,.53l-2.66-.71c-.4-.11-.64-.52-.53-.92l.84-3.14c.11-.4,.52-.64,.92-.53s.64,.52,.53,.92l-.19,.72Z"/><path d="M6.27,14.21c-1.02,.47-1.02,1.93,0,2.4l10.25,4.7c1.1,.5,2.24-.62,1.76-1.72l-1.57-3.6c-.16-.38-.17-.81-.01-1.19l1.46-3.55c.46-1.11-.68-2.2-1.77-1.7L6.27,14.21h0Zm10.44,5.54L7.25,15.4l9.34-4.31-1.29,3.13c-.31,.76-.3,1.61,.02,2.36l1.38,3.16Z" fill="#444444"/></svg>