<?xml version="1.0" encoding="UTF-8"?>
<svg xmlns="http://www.w3.org/2000/svg" viewBox="0 0 24 24"><path fill="#444444" d="M8.84,3.71c1.2-.94,2.8-1.32,4.38-.9,1.48,.4,2.63,1.39,3.24,2.7h0c.17,.38,0,.82-.37,1s-.82,0-1-.37c-.42-.9-1.21-1.6-2.26-1.88-1.4-.38-2.89,.15-3.74,1.33l1.23,.33c.4,.11,.64,.52,.53,.92s-.52,.64-.92,.53l-2.66-.71c-.4-.11-.64-.52-.53-.92l.84-3.14c.11-.4,.52-.64,.92-.53s.64,.52,.53,.92l-.19,.72Z"/><path d="M7.15,8.26c-1.06-.39-2.09,.64-1.69,1.7l3.92,10.57c.42,1.13,2.02,1.15,2.46,.02l1.43-3.65c.15-.38,.45-.69,.83-.85l3.55-1.48c1.11-.46,1.07-2.04-.05-2.46l-10.45-3.86h0Zm3.47,11.3l-3.62-9.76,9.65,3.56-3.12,1.3c-.76,.32-1.35,.92-1.65,1.68l-1.26,3.21Z" fill="#444444"/></svg>