<svg fill="none" viewBox="0 0 24 24" xmlns="http://www.w3.org/2000/svg"><path fill="#444444" d="M7.24,9H3.6c-.91,.08-1.61,.84-1.61,1.75v2.5c0,.97,.78,1.75,1.75,1.75h3.49c.97,0,1.75-.78,1.75-1.75v-2.5c0-.97-.78-1.75-1.75-1.75Zm.25,4.25c0,.14-.11,.25-.25,.25H3.74c-.14,0-.25-.11-.25-.25v-2.5c0-.12,.08-.22,.19-.24h.06s3.49,0,3.49,0c.14,0,.25,.11,.25,.25v2.5Z"/><path fill="#444444" d="M20.17,9h-3.49c-.97,0-1.75,.78-1.75,1.75v2.5c0,.97,.78,1.75,1.75,1.75h3.49c.97,0,1.75-.78,1.75-1.75v-2.5c0-.97-.78-1.75-1.75-1.75Zm.25,4.25c0,.14-.11,.25-.25,.25h-3.49c-.14,0-.25-.11-.25-.25v-2.5c0-.14,.11-.25,.25-.25h3.49c.14,0,.25,.11,.25,.25v2.5Z"/><path fill="#444444" d="M10.25,11.28c-.41,0-.75,.34-.75,.75s.34,.75,.75,.75h3.5c.41,0,.75-.34,.75-.75s-.34-.75-.75-.75h-3.5Z"/><path fill="#444444" d="M13.7,1.99h-3.49c-.97,0-1.75,.78-1.75,1.75v2.5c0,.97,.78,1.75,1.75,1.75h3.49c.97,0,1.75-.78,1.75-1.75V3.74c0-.97-.78-1.75-1.75-1.75Zm.25,4.25c0,.14-.11,.25-.25,.25h-3.49c-.14,0-.25-.11-.25-.25V3.74c0-.14,.11-.25,.25-.25h3.49c.14,0,.25,.11,.25,.25v2.5Z"/><path fill="#444444" d="M13.7,15.93h-3.49c-.97,0-1.75,.78-1.75,1.75v2.5c0,.97,.78,1.75,1.75,1.75h3.49c.97,0,1.75-.78,1.75-1.75v-2.5c0-.97-.78-1.75-1.75-1.75Zm.25,4.25c0,.14-.11,.25-.25,.25h-3.49c-.14,0-.25-.11-.25-.25v-2.5c0-.14,.11-.25,.25-.25h3.49c.14,0,.25,.11,.25,.25v2.5Z"/><path fill="#444444" d="M11.24,13.74c0,.41,.34,.75,.75,.75s.75-.34,.75-.75v-3.5c0-.41-.34-.75-.75-.75s-.75,.34-.75,.75v3.5Z"/></svg>