<?xml version="1.0" encoding="UTF-8"?><svg id="uuid-4c3e2a36-867c-4968-9b8b-32a199fff6c2" xmlns="http://www.w3.org/2000/svg" width="24" height="24" viewBox="0 0 24 24"><circle cx="5.5" cy="6.5" r="1" style="fill:none;"/><circle cx="12" cy="6" r="1.5" style="fill:none;"/><circle cx="18.5" cy="6.5" r="1" style="fill:none;"/><path d="M18.5,9c1.38,0,2.5-1.12,2.5-2.5s-1.12-2.5-2.5-2.5-2.5,1.12-2.5,2.5,1.12,2.5,2.5,2.5ZM18.5,5.5c.55,0,1,.45,1,1s-.45,1-1,1-1-.45-1-1,.45-1,1-1Z" style="fill:#444444;"/><path d="M16.6,10c.28.29.5.63.66,1.01h.24c1.68,0,3.29.64,4.5,1.8v-.56c0-1.24-1.01-2.25-2.25-2.25h-3.15Z" style="fill:#444444;"/><path d="M12,9c1.66,0,3-1.34,3-3s-1.34-3-3-3-3,1.34-3,3,1.34,3,3,3ZM12,4.5c.83,0,1.5.67,1.5,1.5s-.67,1.5-1.5,1.5-1.5-.67-1.5-1.5.67-1.5,1.5-1.5Z" style="fill:#444444;"/><path d="M9,16.5v-4.25c0-.41.34-.75.75-.75h4.5c.16,0,.31.05.43.14.48-.23.99-.4,1.52-.51-.39-.68-1.12-1.13-1.95-1.13h-4.5c-1.24,0-2.25,1.01-2.25,2.25v4.25c0,2.49,2.02,4.5,4.5,4.5h.02c-.32-.49-.56-1.03-.73-1.59-1.31-.32-2.29-1.51-2.29-2.91Z" style="fill:#444444;"/><path d="M5.5,9c1.38,0,2.5-1.12,2.5-2.5s-1.12-2.5-2.5-2.5-2.5,1.12-2.5,2.5,1.12,2.5,2.5,2.5ZM5.5,5.5c.55,0,1,.45,1,1s-.45,1-1,1-1-.45-1-1,.45-1,1-1Z" style="fill:#444444;"/><path d="M17.5,12c-3.04,0-5.5,2.46-5.5,5.5s2.46,5.5,5.5,5.5,5.5-2.46,5.5-5.5-2.46-5.5-5.5-5.5ZM17.52,20.95c-.36,0-.66-.26-.7-.61v-.1s0-3.04,0-3.04c0-.39.32-.71.71-.71h0c.36,0,.66.26.71.61v.1s0,3.04,0,3.04c0,.39-.32.71-.71.71ZM17.58,15.73s-.04,0-.06,0c-.52-.02-.93-.45-.92-.98.02-.5.42-.9.92-.92.52-.02.96.39.98.92.02.52-.39.96-.92.98Z" style="fill:#444444;"/><path d="M4.25,11.5h2.34c.13-.56.42-1.08.82-1.5h-3.31c-1.18.09-2.1,1.07-2.1,2.25v2.75c0,.35.05.7.14,1.03.57,2.13,2.76,3.4,4.9,2.83-.21-.45-.37-.93-.45-1.43-.19.05-.39.07-.58.07-1.38,0-2.5-1.12-2.5-2.5v-2.75c0-.41.34-.75.75-.75Z" style="fill:#444444;"/></svg>