<svg xmlns="http://www.w3.org/2000/svg" viewBox="0 0 24 24"><path d="M4.07,8.14h4.69c.72,0,1.3,.45,1.3,1.01v.99c0,.56-.58,1.01-1.3,1.01H4.07c-.72,0-1.3-.45-1.3-1.01v-.99c0-.56,.58-1.01,1.3-1.01Z" style="fill:none; stroke:#444444; stroke-miterlimit:10; stroke-width:1.5px;"/><path d="M15.22,8.14h4.69c.72,0,1.3,.45,1.3,1.01v.99c0,.56-.58,1.01-1.3,1.01h-4.69c-.72,0-1.3-.45-1.3-1.01v-.99c0-.56,.58-1.01,1.3-1.01Z" style="fill:none; stroke:#444444; stroke-miterlimit:10; stroke-width:1.5px;"/><path d="M9.63,3.03h4.69c.72,0,1.3,.45,1.3,1.01v.99c0,.56-.58,1.01-1.3,1.01h-4.69c-.72,0-1.3-.45-1.3-1.01v-.99c0-.56,.58-1.01,1.3-1.01Z" style="fill:none; stroke:#444444; stroke-miterlimit:10; stroke-width:1.5px;"/><path d="M4.07,12.92h4.69c.72,0,1.3,.45,1.3,1.01v.99c0,.56-.58,1.01-1.3,1.01H4.07c-.72,0-1.3-.45-1.3-1.01v-.99c0-.56,.58-1.01,1.3-1.01Z" style="fill:none; stroke:#444444; stroke-miterlimit:10; stroke-width:1.5px;"/><path d="M15.22,12.92h4.69c.72,0,1.3,.45,1.3,1.01v.99c0,.56-.58,1.01-1.3,1.01h-4.69c-.72,0-1.3-.45-1.3-1.01v-.99c0-.56,.58-1.01,1.3-1.01Z" style="fill:none; stroke:#444444; stroke-miterlimit:10; stroke-width:1.5px;"/><path d="M9.63,17.96h4.69c.72,0,1.3,.45,1.3,1.01v.99c0,.56-.58,1.01-1.3,1.01h-4.69c-.72,0-1.3-.45-1.3-1.01v-.99c0-.56,.58-1.01,1.3-1.01Z" style="fill:none; stroke:#444444; stroke-miterlimit:10; stroke-width:1.5px;"/></svg>